<svg width="38" height="34" viewBox="0 0 38 34" fill="none" xmlns="http://www.w3.org/2000/svg">
<g clip-path="url(#clip0_1445_390)">
<path d="M17.0507 19.8638C17.0507 19.8638 20.116 18.8794 20.116 14.7852C20.116 10.3077 17.0668 8.14502 11.3525 8.14502H0V26.9828C0.00584429 28.1999 0.975997 29.1843 2.16823 29.1798H5.42204V22.5351H11.9384C14.5786 22.5351 16.2661 23.4957 16.2661 25.8552C16.2661 28.2148 14.5786 29.1768 11.9384 29.1768H5.42204V33.6051H12.6865C17.3999 33.6051 21.9059 31.8422 21.9059 25.8567C22.0242 22.8871 19.932 20.3038 17.0522 19.8638H17.0507ZM10.1223 18.1083H5.42496V12.5733H10.1238C12.8384 12.5733 14.4149 13.2266 14.4149 15.2968C14.4149 17.5475 12.8355 18.1068 10.1238 18.1068L10.1223 18.1083Z" fill="#173961"/>
<path d="M26.0261 15.8933C24.8295 15.8978 23.8608 16.8867 23.8564 18.1067V33.605H29.2784V15.8933H26.0261Z" fill="#173961"/>
<path d="M24.942 8.14502C24.3444 8.14651 23.8593 8.64169 23.8578 9.25172V12.5733H28.1958C28.7934 12.5718 29.2784 12.0766 29.2799 11.4666V8.14651H24.942V8.14502Z" fill="#2AB8CD"/>
<path d="M37.9543 0.39502H31.4481C30.2515 0.399494 29.2843 1.38837 29.2799 2.60842V8.14342H35.786C36.9827 8.13895 37.9499 7.15008 37.9543 5.93002V0.39502Z" fill="#F9B624"/>
</g>
<defs>
<clipPath id="clip0_1445_390">
<rect width="37.9543" height="33.21" fill="white" transform="translate(0 0.39502)"/>
</clipPath>
</defs>
</svg>
